<svg xmlns="http://www.w3.org/2000/svg" width="581.341" height="127.01" viewBox="0 0 581.341 127.01">
  <g id="그룹_4" data-name="그룹 4" transform="translate(-1086.566 -443.63)">
    <path id="패스_26" data-name="패스 26" d="M1204.553,460.286v13.6h-41.365V491.1h37.756v13.465h-37.756V525.8h46.779v13.465h-46.779v29.566h-16.517V539.269H1086.7V525.8h20.821V491.1h39.145V473.89h-27.207a142.506,142.506,0,0,1-20.127,21.515,117.854,117.854,0,0,0-12.771-11.382c13.325-10.133,25.54-24.431,31.648-39.977l14.02,4.025c3.331.833,4.581,1.8,4.581,2.776,0,1.111-2.082,2.221-4.164,2.5-1.805,2.915-2.5,4.72-3.748,6.94Zm-57.882,44.281h-22.905V525.8h22.905Z" fill="#1a1818"/>
    <path id="패스_27" data-name="패스 27" d="M1243.978,466.949h48.444V444.6h13.6c3.887,0,5.414.972,5.414,2.5,0,1.11-.834,2.5-2.221,4.025v15.824h49.138v65.518H1341.7v-6.385h-32.481v43.447h-16.8V526.082H1260.5v7.079h-16.519Zm16.519,13.465v32.2h31.925v-32.2Zm81.342,0h-32.62v32.2h32.62Z" fill="#1a1818"/>
    <path id="패스_28" data-name="패스 28" d="M1510.356,456.539v13.6H1495.5v19.433H1514.8V503.04H1495.5v20.544h14.576v13.464H1394.866V523.584h17.074V503.04h-19.434V489.575h19.434V476.527a137.423,137.423,0,0,1-9.994,10.966c-3.193-3.47-7.357-8.051-11.106-10.966,11.383-9.3,21.1-24.014,25.957-32.9l12.356,3.053c2.914.694,4.025,1.527,4.025,2.5s-1.666,2.082-3.748,3.053c-1.111,1.805-1.527,2.916-2.5,4.3Zm-86.062,87.449c-3.053,10.689-9.024,20.96-14.159,26.652-5.968-2.777-10.548-5.136-15.546-7.079,6.8-6.525,13.187-15.825,15.962-24.153Zm10.548-73.846h-7.216v19.433h7.216Zm0,32.9h-7.216v20.544h7.216Zm11.245,38.866a106.3,106.3,0,0,1,3.47,25.68,159.7,159.7,0,0,0-16.8,1.8,83.382,83.382,0,0,0,.278-8.467,112.715,112.715,0,0,0-1.248-17.49Zm11.244-71.764h-7.219v19.433h7.219Zm0,32.9h-7.219v20.544h7.219Zm17.629,38.172c2.5,8.329,4.857,17.907,6.107,24.708-4.164.556-13.326,1.8-16.658,2.36a182.488,182.488,0,0,0-4.858-24.985Zm4.857-71.07h-7.357v19.433h7.357Zm0,32.9h-7.357v20.544h7.357Zm23.043,35.4a177.548,177.548,0,0,1,13.6,24.292c-5.137,1.665-10.551,3.748-14.993,5.552a166.09,166.09,0,0,0-12.353-25.68Z" fill="#1a1818"/>
    <path id="패스_29" data-name="패스 29" d="M1560.883,504.983a102.273,102.273,0,0,1-8.605,12.215c-2.5-5.413-5.137-11.8-7.773-15.963,10.828-15.13,21.931-37.895,27.207-56.773l12.63,3.193c3.332.972,4.582,1.943,4.582,3.054s-1.527,2.22-3.47,2.915c-2.082,7.495-5.414,14.991-8.051,21.654v94.251h-16.52Zm105.774-33.175v13.881H1630.01c7.5,17.767,26.514,35.812,37.9,43.724a147.458,147.458,0,0,0-11.8,15.131c-13.326-11.383-22.627-22.21-26.514-28.456v53.441h-16.517V516.365c-5.83,11.661-14.158,21.238-23.182,29.983a145.774,145.774,0,0,0-11.937-14.575c13.6-9.3,24.986-27.345,33.453-46.084h-29.983V471.808h31.787V445.3h14.436c3.193,0,4.3.833,4.3,1.943,0,1.249-1.11,2.638-2.36,3.748v20.822Z" fill="#1a1818"/>
  </g>
</svg>
