<?xml version="1.0" standalone="no"?>
<!DOCTYPE svg PUBLIC "-//W3C//DTD SVG 20010904//EN"
 "http://www.w3.org/TR/2001/REC-SVG-20010904/DTD/svg10.dtd">
<svg version="1.0" xmlns="http://www.w3.org/2000/svg"
 width="571.000000pt" height="137.000000pt" viewBox="0 0 571.000000 137.000000"
 preserveAspectRatio="xMidYMid meet">
<metadata>
Created by potrace 1.15, written by Peter Selinger 2001-2017
</metadata>
<g transform="translate(0.000000,137.000000) scale(0.100000,-0.100000)"
fill="#000000" stroke="none">
<path d="M940 1270 l0 -90 -148 0 -147 0 -50 35 c-70 50 -140 68 -239 63 -142
-7 -248 -76 -305 -197 -22 -48 -26 -69 -26 -151 0 -81 4 -103 27 -151 33 -72
94 -134 167 -168 49 -23 68 -26 161 -26 116 0 164 15 240 75 l38 30 141 0 141
0 0 -160 0 -160 100 0 100 0 0 495 0 495 -100 0 -100 0 0 -90z m-484 -186 c52
-25 78 -68 82 -140 7 -114 -44 -175 -153 -182 -50 -3 -66 0 -94 20 -102 69
-103 227 -1 295 40 28 116 31 166 7z m484 -149 l0 -85 -102 0 -103 0 0 85 0
85 102 0 103 0 0 -85z"/>
<path d="M4980 1290 l0 -70 -225 0 -225 0 0 -75 0 -75 550 0 550 0 0 75 0 75
-225 0 -225 0 0 70 0 70 -100 0 -100 0 0 -70z"/>
<path d="M1600 1230 l0 -80 183 -2 182 -3 -42 -46 c-65 -71 -239 -139 -354
-139 -16 0 -29 -2 -29 -4 0 -3 16 -39 35 -82 l35 -77 60 7 c156 18 307 83 386
168 l49 53 57 -58 c85 -86 227 -147 380 -164 l57 -6 36 78 c19 43 35 79 35 81
0 2 -15 4 -32 4 -57 0 -199 39 -260 72 -55 29 -118 87 -118 108 0 6 69 10 175
10 l175 0 0 80 0 80 -505 0 -505 0 0 -80z"/>
<path d="M3120 1025 l0 -275 470 0 470 0 0 275 0 275 -470 0 -470 0 0 -275z
m750 0 l0 -115 -275 0 -275 0 0 115 0 115 275 0 275 0 0 -115z"/>
<path d="M4937 1020 c-153 -19 -263 -74 -302 -151 -19 -35 -19 -109 -1 -152
29 -70 124 -124 261 -148 107 -18 384 -7 466 19 86 28 146 72 170 125 60 134
-22 247 -213 292 -78 18 -290 27 -381 15z m309 -161 c87 -17 119 -68 69 -108
-36 -28 -110 -41 -230 -41 -57 0 -127 5 -154 11 -105 22 -134 85 -57 123 63
31 255 39 372 15z"/>
<path d="M1490 670 l0 -80 260 0 260 0 0 -45 0 -45 -37 0 c-55 0 -156 -26
-211 -54 -62 -31 -119 -94 -128 -141 -34 -184 140 -295 464 -295 241 0 379 46
450 150 29 43 31 139 3 190 -38 72 -152 131 -287 146 l-54 7 0 43 0 44 255 0
255 0 0 80 0 80 -615 0 -615 0 0 -80z m822 -347 c86 -39 73 -109 -24 -138 -57
-17 -248 -22 -332 -10 -69 11 -111 43 -111 84 0 70 69 91 280 87 118 -2 147
-5 187 -23z"/>
<path d="M2980 530 l0 -80 255 0 255 0 0 -220 0 -220 100 0 100 0 0 220 0 220
260 0 260 0 0 80 0 80 -615 0 -615 0 0 -80z"/>
<path d="M4470 420 l0 -80 140 0 140 0 0 -165 0 -165 100 0 100 0 0 165 0 165
135 0 135 0 0 -165 0 -165 100 0 100 0 0 165 0 165 140 0 140 0 0 80 0 80
-615 0 -615 0 0 -80z"/>
<path d="M240 250 l0 -220 465 0 465 0 0 80 0 80 -365 0 -365 0 0 140 0 140
-100 0 -100 0 0 -220z"/>
</g>
</svg>
