<?xml version="1.0" standalone="no"?>
<!DOCTYPE svg PUBLIC "-//W3C//DTD SVG 20010904//EN"
 "http://www.w3.org/TR/2001/REC-SVG-20010904/DTD/svg10.dtd">
<svg version="1.0" xmlns="http://www.w3.org/2000/svg"
 width="1218.000000pt" height="154.000000pt" viewBox="0 0 1218.000000 154.000000"
 preserveAspectRatio="xMidYMid meet">

<g transform="translate(0.000000,154.000000) scale(0.100000,-0.100000)"
fill="#1775d1" stroke="none">
<path d="M5720 1524 c-238 -51 -385 -236 -366 -461 12 -151 78 -250 208 -311
37 -18 165 -57 302 -92 258 -65 307 -85 336 -133 26 -42 26 -116 1 -165 -41
-80 -192 -123 -356 -102 -149 19 -221 75 -240 188 l-7 42 -134 0 -134 0 0 -28
c0 -45 28 -141 57 -194 34 -62 125 -148 192 -182 93 -48 189 -66 340 -66 188
0 296 30 412 115 183 135 215 449 61 603 -62 62 -149 97 -423 168 -139 36
-265 72 -280 79 -15 8 -37 27 -49 42 -19 24 -21 38 -18 100 3 63 7 76 32 102
46 48 106 66 221 66 167 0 248 -44 286 -157 l18 -53 130 -3 131 -3 0 30 c0 41
-33 142 -63 193 -34 59 -122 140 -186 173 -123 62 -318 82 -471 49z"/>
<path d="M20 1484 c0 -13 326 -1237 376 -1412 l15 -52 130 0 c127 0 130 1 138
24 13 34 165 784 196 966 25 147 39 192 49 159 2 -8 14 -77 26 -154 25 -160
177 -935 190 -971 9 -24 12 -24 139 -24 91 0 131 4 138 13 6 6 97 334 203 727
106 393 195 721 197 728 4 9 -28 12 -139 12 l-145 0 -68 -307 c-37 -170 -89
-416 -116 -547 -27 -131 -51 -241 -54 -244 -11 -12 -18 14 -51 195 -19 103
-68 348 -108 543 l-72 355 -151 3 -151 3 -11 -53 c-47 -238 -127 -659 -156
-828 -20 -113 -40 -209 -45 -214 -10 -10 -14 2 -40 144 -23 123 -187 903 -196
933 -5 15 -21 17 -150 17 -124 0 -144 -2 -144 -16z"/>
<path d="M2010 775 l0 -725 535 0 535 0 0 120 0 120 -395 0 -395 0 0 200 0
200 350 0 350 0 0 120 0 120 -350 0 -350 0 0 165 0 165 380 0 380 0 0 120 0
120 -520 0 -520 0 0 -725z"/>
<path d="M3330 775 l0 -725 378 0 c211 0 406 5 442 11 90 14 180 58 239 117
184 184 166 500 -35 613 -60 35 -61 45 -3 83 79 53 126 169 116 288 -10 121
-77 228 -177 282 -98 53 -121 56 -557 56 l-403 0 0 -725z m784 470 c62 -31 81
-65 81 -145 0 -82 -18 -113 -85 -147 -42 -22 -55 -23 -277 -23 l-233 0 0 171
0 171 238 -4 c210 -3 242 -6 276 -23z m26 -577 c65 -34 84 -65 88 -149 7 -114
-27 -178 -113 -215 -33 -15 -80 -19 -277 -22 l-238 -4 0 206 0 206 248 0 c237
0 250 -1 292 -22z"/>
<path d="M6680 1380 l0 -120 220 0 220 0 0 -605 0 -605 145 0 145 0 0 605 0
605 220 0 220 0 0 120 0 120 -585 0 -585 0 0 -120z"/>
<path d="M8080 1001 c0 -553 4 -604 61 -719 56 -114 160 -194 313 -241 85 -26
295 -29 394 -6 178 42 298 155 358 335 16 50 19 105 22 593 l3 537 -145 0
-145 0 -3 -527 c-3 -511 -4 -529 -24 -573 -26 -56 -81 -105 -136 -122 -67 -19
-216 -16 -258 6 -49 25 -88 64 -113 111 -22 39 -22 49 -25 573 l-3 532 -149 0
-150 0 0 -499z"/>
<path d="M9550 775 l0 -725 348 0 c378 0 413 4 522 58 69 34 164 129 213 212
144 248 155 657 24 904 -43 82 -134 176 -204 214 -110 58 -144 62 -542 62
l-361 0 0 -725z m715 466 c89 -39 138 -106 172 -234 23 -86 23 -336 0 -430
-33 -133 -105 -236 -192 -273 -32 -14 -80 -18 -227 -22 l-188 -4 0 497 0 498
193 -5 c170 -4 198 -7 242 -27z"/>
<path d="M10969 1428 c22 -40 132 -239 245 -443 l206 -370 0 -282 0 -283 145
0 145 0 0 274 0 274 230 448 c127 246 230 449 230 451 0 1 -67 3 -148 3 -129
0 -151 -2 -164 -17 -8 -10 -73 -152 -144 -316 -90 -207 -133 -296 -143 -295
-8 2 -79 137 -159 303 -79 165 -148 306 -154 313 -8 9 -55 12 -170 12 l-159 0
40 -72z"/>
</g>
</svg>
